Coordinates
version=1
nRows=32
nColumns=22
inDegrees=yes

Units are S.I. units (second, meters, Newtons, ...)
If the header above contains a line with 'inDegrees', this indicates whether rotational values are in degrees (yes) or radians (no).

endheader
time	pelvis_tilt	pelvis_list	pelvis_rotation	pelvis_tx	pelvis_ty	pelvis_tz	hip_flexion_r	hip_adduction_r	hip_rotation_r	knee_angle_r	ankle_angle_r	subtalar_angle_r	hip_flexion_l	hip_adduction_l	hip_rotation_l	knee_angle_l	ankle_angle_l	subtalar_angle_l	lumbar_extension	lumbar_bending	lumbar_rotation
      1.41000000	     -0.00457141	     -0.22118607	      2.98652153	     -0.68089594	      1.07977563	      1.09786079	      1.45732014	      1.65305932	     -2.84986319	    -15.78354142	     15.04515380	     -3.52792278	      0.40750763	     -1.16724356	     -2.41191972	    -13.62415115	     14.31223812	     -0.30717320	     -3.07175923	     -2.20766563	     -5.65016674
      1.42000000	     -0.06539038	     -0.25198578	      2.99047666	     -0.68030711	      1.07952100	      1.09886704	      1.49179571	      1.75165825	     -2.76476949	    -15.79535137	     15.12982284	     -3.56095065	      0.61014185	     -1.26161489	     -2.42817112	    -13.93552845	     14.41614091	     -0.24013973	     -3.11878356	     -2.17828706	     -5.60722495
      1.43000000	     -0.13195836	     -0.30373242	      2.98618486	     -0.67970757	      1.07925607	      1.09995162	      1.52115715	      1.87707371	     -2.66676000	    -15.78419807	     15.19383111	     -3.58747927	      0.85419416	     -1.38197286	     -2.44717909	    -14.31323755	     14.53406867	     -0.17673561	     -3.16292086	     -2.12819925	     -5.53962230
      1.44000000	     -0.20617313	     -0.37546214	      2.97069354	     -0.67911146	      1.07897045	      1.10110185	      1.55108673	      2.02526751	     -2.56607062	    -15.75431232	     15.25015432	     -3.61193533	      1.14603838	     -1.52645265	     -2.46828884	    -14.76422150	     14.66935595	     -0.11482796	     -3.20481458	     -2.05508748	     -5.44605598
      1.45000000	     -0.28927233	     -0.46488361	      2.94855670	     -0.67852882	      1.07865818	      1.10232081	      1.58801235	      2.19554858	     -2.45802468	    -15.71599605	     15.29746512	     -3.63697289	      1.49137640	     -1.69334408	     -2.48779851	    -15.29489219	     14.81544514	     -0.05056331	     -3.24515899	     -1.96467027	     -5.33277831
      1.46000000	     -0.38372461	     -0.57355727	      2.91806258	     -0.67797087	      1.07831066	      1.10360390	      1.63705858	      2.38849993	     -2.34635552	    -15.67200582	     15.33737864	     -3.66444674	      1.89755022	     -1.88371150	     -2.50123652	    -15.91262040	     14.97343064	      0.01857135	     -3.28282175	     -1.85463798	     -5.20045297
      1.47000000	     -0.52524345	     -0.69202769	      2.87876894	     -0.67751066	      1.07787763	      1.10494801	      1.75694756	      2.59333949	     -2.20676489	    -15.65627370	     15.34576011	     -3.70306978	      2.41489343	     -2.08290413	     -2.48948087	    -16.63392528	     15.12920090	      0.12922551	     -3.28743527	     -1.73708174	     -5.06990996
      1.48000000	     -0.63863921	     -0.83013471	      2.84446714	     -0.67701543	      1.07745512	      1.10632003	      1.83182152	      2.82133603	     -2.09397133	    -15.61380228	     15.38287985	     -3.73490364	      2.95418296	     -2.30796047	     -2.47630277	    -17.45137089	     15.28933714	      0.21521079	     -3.32660031	     -1.59746656	     -4.92817252
      1.49000000	     -0.75504357	     -0.98700670	      2.81065263	     -0.67656832	      1.07700713	      1.10772015	      1.91316889	      3.07012224	     -1.98764465	    -15.56920391	     15.41390288	     -3.76217677	      3.55897833	     -2.55314203	     -2.44282021	    -18.37602383	     15.44697610	      0.30204905	     -3.38137521	     -1.43741735	     -4.77696837
      1.50000000	     -0.90344732	     -1.13731608	      2.78463074	     -0.67614486	      1.07649312	      1.10912190	      2.02827275	      3.30881313	     -1.90133319	    -15.52263544	     15.47782122	     -3.78804265	      4.26945972	     -2.79005806	     -2.40522452	    -19.42638632	     15.55719848	      0.42672629	     -3.40933857	     -1.28563297	     -4.63834235
      1.51000000	     -1.02018951	     -1.30736526	      2.76373425	     -0.67574804	      1.07600163	      1.11052441	      2.11699099	      3.56993798	     -1.82236056	    -15.48762881	     15.53171530	     -3.79782689	      5.01494934	     -3.04668742	     -2.34463552	    -20.59579028	     15.65532626	      0.54156816	     -3.48927927	     -1.10853604	     -4.50300592
      1.52000000	     -1.12227010	     -1.48269715	      2.75399900	     -0.67535786	      1.07552302	      1.11191046	      2.18195858	      3.83577109	     -1.75723570	    -15.43604058	     15.58011646	     -3.79176443	      5.81723224	     -3.30722148	     -2.27445190	    -21.88968083	     15.71430736	      0.65744781	     -3.59848717	     -0.92365148	     -4.38115877
      1.53000000	     -1.21474282	     -1.66062061	      2.75815157	     -0.67499287	      1.07504694	      1.11326039	      2.24310088	      4.10183063	     -1.71495535	    -15.39522659	     15.64325054	     -3.77441560	      6.68885965	     -3.56541906	     -2.18528786	    -23.31653305	     15.71067802	      0.79099630	     -3.73242773	     -0.73398926	     -4.26411450
      1.54000000	     -1.29663598	     -1.83364325	      2.78286429	     -0.67461333	      1.07459209	      1.11456403	      2.28062540	      4.36070222	     -1.69300912	    -15.33311413	     15.70254275	     -3.74737320	      7.62523584	     -3.81482449	     -2.08766591	    -24.86866221	     15.63237306	      0.93339917	     -3.88596210	     -0.54959256	     -4.17085961
      1.55000000	     -1.35516151	     -2.00893365	      2.82802879	     -0.67421459	      1.07418063	      1.11581458	      2.28585592	      4.62052443	     -1.69530735	    -15.25739217	     15.75765279	     -3.71856801	      8.60759859	     -4.06020231	     -1.96648650	    -26.53388378	     15.46764085	      1.07695408	     -4.07389438	     -0.36161090	     -4.08595188
      1.56000000	     -1.40109125	     -2.17699886	      2.89056968	     -0.67380181	      1.07380021	      1.11700473	      2.27895776	      4.87086125	     -1.71594345	    -15.18589147	     15.81821342	     -3.69439553	      9.64170234	     -4.28667503	     -1.81280918	    -28.29911020	     15.19104065	      1.23222473	     -4.28470401	     -0.18184013	     -4.00702296
      1.57000000	     -1.43101171	     -2.34095576	      2.97074493	     -0.67333961	      1.07346133	      1.11812044	      2.25046418	      5.11483529	     -1.74983836	    -15.11088067	     15.86913068	     -3.67977906	     10.71138785	     -4.49482087	     -1.62261490	    -30.14033180	     14.80222215	      1.39075088	     -4.51469847	     -0.00408502	     -3.92813658
      1.58000000	     -1.44352177	     -2.49950115	      3.06205627	     -0.67280377	      1.07316917	      1.11916676	      2.19295823	      5.35192149	     -1.79316907	    -15.02294692	     15.90857558	     -3.67694636	     11.79885560	     -4.68058573	     -1.39857861	    -32.02600322	     14.30205039	      1.54569408	     -4.76217624	      0.16707242	     -3.84359447
      1.59000000	     -1.43746820	     -2.65074246	      3.15700668	     -0.67219485	      1.07292187	      1.12015180	      2.10744784	      5.57971230	     -1.83977395	    -14.92571403	     15.93982558	     -3.68483759	     12.88740091	     -4.84046137	     -1.14456583	    -33.92431391	     13.70702106	      1.69284348	     -5.03046680	      0.33076313	     -3.75205880
      1.60000000	     -1.42864121	     -2.78768011	      3.24515486	     -0.67150584	      1.07269627	      1.12108163	      2.01427368	      5.78932398	     -1.88235702	    -14.82930349	     15.96260666	     -3.70128171	     13.97623426	     -4.96294424	     -0.86421051	    -35.80037748	     13.02757387	      1.84362110	     -5.29880045	      0.47728895	     -3.64207093
      1.61000000	     -1.40239311	     -2.91934809	      3.32667933	     -0.67070490	      1.07250520	      1.12194966	      1.88942627	      5.99074616	     -1.92515436	    -14.71995387	     15.98182469	     -3.71987363	     15.03391034	     -5.05583560	     -0.56101156	    -37.61882198	     12.31512630	      1.98202284	     -5.57752439	      0.61801326	     -3.51037196
      1.62000000	     -1.38307675	     -3.02984368	      3.38760121	     -0.66981375	      1.07231502	      1.12276500	      1.76866402	      6.16352275	     -1.95842415	    -14.61691203	     16.00453662	     -3.73723512	     16.07295937	     -5.10263914	     -0.25699879	    -39.34707991	     11.58988755	      2.12312711	     -5.84569194	      0.73332912	     -3.35979966
      1.63000000	     -1.36691080	     -3.11664751	      3.42543177	     -0.66880709	      1.07213185	      1.12351938	      1.64429432	      6.30459893	     -1.98172050	    -14.51813026	     16.03486550	     -3.74685468	     17.07455642	     -5.10056858	      0.03418935	    -40.94837827	     10.90392033	      2.25850111	     -6.10245674	      0.82123498	     -3.18838451
      1.64000000	     -1.35495301	     -3.17747808	      3.44021380	     -0.66766621	      1.07196022	      1.12420241	      1.51274345	      6.41030870	     -1.99771731	    -14.41697724	     16.07113019	     -3.74281643	     18.02900844	     -5.04843917	      0.29799191	    -42.39074593	     10.30026829	      2.37672044	     -6.34500558	      0.87929260	     -3.00132868
      1.65000000	     -1.35240513	     -3.20160016	      3.42863184	     -0.66637199	      1.07179844	      1.12480782	      1.37882793	      6.46797499	     -2.00443900	    -14.31637699	     16.12255811	     -3.72204531	     18.93231075	     -4.93951213	      0.51226031	    -43.64477358	      9.80449744	      2.47287151	     -6.56567439	      0.89587542	     -2.79868456
      1.66000000	     -1.34907377	     -3.18806339	      3.39703321	     -0.66488627	      1.07168025	      1.12533209	      1.22048276	      6.47703298	     -2.01070350	    -14.19748578	     16.15850660	     -3.68474356	     19.76533126	     -4.77962601	      0.66166259	    -44.68407532	      9.41976144	      2.53337051	     -6.77102068	      0.87044991	     -2.59144992
      1.67000000	     -1.30334227	     -3.13343139	      3.34096271	     -0.66320957	      1.07164600	      1.12579992	      1.00022993	      6.44075071	     -1.98226924	    -14.07923260	     16.26336973	     -3.65025980	     20.48148680	     -4.57851101	      0.72444474	    -45.49859612	      9.15629508	      2.56093780	     -7.01421802	      0.80097619	     -2.40555508
      1.68000000	     -1.38654193	     -3.06623477	      3.28105485	     -0.66138868	      1.07144256	      1.12616917	      0.91797342	      6.37173616	     -2.00541502	    -13.97537452	     16.34004833	     -3.56868059	     21.28794836	     -4.34440866	      0.74398027	    -46.10716527	      9.00193944	      2.61118785	     -7.09012960	      0.71204227	     -2.21680957
      1.69000000	     -1.38930401	     -2.97743479	      3.21587773	     -0.65933157	      1.07138584	      1.12650280	      0.71172939	      6.28647283	     -1.98124040	    -13.83053374	     16.43630929	     -3.51442387	     21.93859725	     -4.09853390	      0.69607741	    -46.48390626	      8.89763732	      2.64412517	     -7.24199809	      0.60060387	     -2.06566040
      1.70000000	     -1.42382224	     -2.86610855	      3.14410617	     -0.65707230	      1.07129728	      1.12676951	      0.52838852	      6.16900357	     -1.97464214	    -13.68829444	     16.52619770	     -3.44936636	     22.56471115	     -3.83674363	      0.57243850	    -46.64631588	      8.82979174	      2.69576077	     -7.33727378	      0.46472463	     -1.92297114
      1.71000000	     -1.46849134	     -2.75076534	      3.06738438	     -0.65462585	      1.07118678	      1.12701103	      0.34913985	      6.04457651	     -1.97842848	    -13.55290662	     16.62007256	     -3.37998970	     23.15210434	     -3.58431646	      0.38810649	    -46.61304087	      8.77238754	      2.77018790	     -7.40549358	      0.32151281	     -1.79584234
      1.72000000	     -1.51250733	     -2.63820404	      2.99803603	     -0.65200004	      1.07106205	      1.12721157	      0.15534011	      5.92330582	     -1.97691580	    -13.40897429	     16.70929409	     -3.32088588	     23.69242264	     -3.34386654	      0.16747680	    -46.39397384	      8.71564929	      2.85068639	     -7.46068110	      0.18335549	     -1.69835840
